<?xml version="1.0" encoding="UTF-8" standalone="no"?>
<!-- Created with Inkscape (http://www.inkscape.org/) -->

<svg
   xmlns:dc="http://purl.org/dc/elements/1.1/"
   xmlns:cc="http://creativecommons.org/ns#"
   xmlns:rdf="http://www.w3.org/1999/02/22-rdf-syntax-ns#"
   xmlns:svg="http://www.w3.org/2000/svg"
   xmlns="http://www.w3.org/2000/svg"
   xmlns:sodipodi="http://sodipodi.sourceforge.net/DTD/sodipodi-0.dtd"
   xmlns:inkscape="http://www.inkscape.org/namespaces/inkscape"
   width="154"
   height="44"
   viewBox="0 0 154 44"
   id="svg2"
   version="1.1"
   inkscape:version="0.91 r13725"
   sodipodi:docname="header_rss.svg">
  <defs
     id="defs4" />
  <sodipodi:namedview
     id="base"
     pagecolor="#ffffff"
     bordercolor="#666666"
     borderopacity="1.0"
     inkscape:pageopacity="0.0"
     inkscape:pageshadow="2"
     inkscape:zoom="2.8"
     inkscape:cx="55.336881"
     inkscape:cy="65.836934"
     inkscape:document-units="px"
     inkscape:current-layer="layer1"
     showgrid="false"
     units="px"
     inkscape:window-width="1366"
     inkscape:window-height="745"
     inkscape:window-x="1280"
     inkscape:window-y="279"
     inkscape:window-maximized="1"
     fit-margin-top="0"
     fit-margin-left="0"
     fit-margin-right="0"
     fit-margin-bottom="0" />
  <metadata
     id="metadata7">
    <rdf:RDF>
      <cc:Work
         rdf:about="">
        <dc:format>image/svg+xml</dc:format>
        <dc:type
           rdf:resource="http://purl.org/dc/dcmitype/StillImage" />
        <dc:title></dc:title>
      </cc:Work>
    </rdf:RDF>
  </metadata>
  <g
     inkscape:label="Calque 1"
     inkscape:groupmode="layer"
     id="layer1"
     transform="translate(2.2888184e-7,-1008.3622)">
    <g
       style="font-style:normal;font-weight:normal;font-size:40px;line-height:125%;font-family:Sans;letter-spacing:0px;word-spacing:0px;fill:#000000;fill-opacity:1;stroke:none;stroke-width:1px;stroke-linecap:butt;stroke-linejoin:miter;stroke-opacity:1"
       id="text4136"
       transform="matrix(1.1379801,0,0,1.1379801,3.1581138e-8,-151.20504)">
      <path
         d="m 1.3999998,1024.6822 -1.40000002888184,0 0,27.28 1.40000002888184,0 0,-27.28 z m 13.9200002,0 -1.68,0 -12.1200002,12.6 12.7200002,14.68 1.72,0 -12.6800002,-14.68 12.0400002,-12.6 z"
         style="font-style:normal;font-variant:normal;font-weight:200;font-stretch:normal;font-family:'Fira Sans';-inkscape-font-specification:'Fira Sans Ultra-Light';fill:#000000;fill-opacity:1"
         id="path4186"
         inkscape:connector-curvature="0" />
      <path
         d="m 53.246875,1037.4822 c 3,-0.52 4.92,-2.44 4.92,-6.04 0,-4.56 -3.44,-6.76 -9.32,-6.76 l -5.8,0 0,27.28 7.36,0 c 5.76,0 9.12,-2.64 9.12,-7.44 0,-4.76 -2.88,-6.84 -6.28,-7.04 z m -4.24,-11.52 c 4.96,0 7.72,1.68 7.72,5.52 0,3.4 -2.32,5.48 -5.8,5.48 l -6.48,0 0,-11 4.56,0 z m 1.44,24.72 -6,0 0,-12.52 6.68,0 c 4.04,0 6.96,2 6.96,6.36 0,4.16 -2.88,6.16 -7.64,6.16 z"
         style="font-style:normal;font-variant:normal;font-weight:200;font-stretch:normal;font-family:'Fira Sans';-inkscape-font-specification:'Fira Sans Ultra-Light';fill:#000000;fill-opacity:1"
         id="path4190"
         inkscape:connector-curvature="0" />
      <path
         d="m 105.32312,1024.6822 -1.36,0 0,17.8 c 0,3.64 0.08,6.36 0.16,7.92 l -14.159995,-25.72 -1.76,0 0,27.28 1.36,0 0,-17.2 c 0,-4.8 -0.08,-6.92 -0.2,-8.52 l 14.199995,25.72 1.76,0 0,-27.28 z"
         style="font-style:normal;font-variant:normal;font-weight:200;font-stretch:normal;font-family:'Fira Sans';-inkscape-font-specification:'Fira Sans Ultra-Light';fill:#000000;fill-opacity:1"
         id="path4194"
         inkscape:connector-curvature="0" />
      <path
         d="m 123.80562,1024.2422 c -6.4,0 -10.84,5.12 -10.84,14.16 0,9 4.4,13.96 10.84,13.96 6.68,0 10.84,-5.12 10.84,-14 0,-9.24 -4.36,-14.12 -10.84,-14.12 z m 0,1.32 c 5.64,0 9.4,4.2 9.4,12.8 0,8.4 -3.56,12.72 -9.4,12.72 -5.52,0 -9.4,-4.32 -9.4,-12.68 0,-8.56 3.84,-12.84 9.4,-12.84 z"
         style="font-style:normal;font-variant:normal;font-weight:200;font-stretch:normal;font-family:'Fira Sans';-inkscape-font-specification:'Fira Sans Ultra-Light';fill:#000000;fill-opacity:1"
         id="path4196"
         inkscape:connector-curvature="0" />
    </g>
    <g
       style="font-style:normal;font-weight:normal;font-size:40px;line-height:125%;font-family:Sans;letter-spacing:0px;word-spacing:0px;fill:#000000;fill-opacity:1;stroke:none;stroke-width:1px;stroke-linecap:butt;stroke-linejoin:miter;stroke-opacity:1"
       id="text4136-1"
       transform="matrix(1.1379801,0,0,1.1379801,-327.34608,665.85293)">
      <path
         d="m 327.11423,334.16668 -10.09786,-27.23536 -10.34214,27.23536 z m -18.81955,-1.19739 5.88391,-15.62044 4.87414,-1.40926 6.40569,16.95891 z"
         style="font-style:normal;font-variant:normal;font-weight:200;font-stretch:normal;font-family:'Fira Sans';-inkscape-font-specification:'Fira Sans Ultra-Light';fill:#000000;fill-opacity:1"
         id="path4159"
         inkscape:connector-curvature="0"
         sodipodi:nodetypes="ccccccccc" />
      <path
         d="m 372.70688,333.82719 -0.008,-1.24916 -1.36672,-0.006 -8.73903,-23.76226 0.83839,-1.55306 -0.73436,-0.62958 -0.82296,1.22506 -0.69448,-1.17371 -0.71601,0.66008 0.84437,1.49829 -9.42882,23.88393 -1.23813,0.005 0.0188,1.14693 z m -17.50259,-1.13043 6.57828,-15.51649 6.1435,15.46802 z"
         style="font-style:normal;font-variant:normal;font-weight:200;font-stretch:normal;font-size:40px;line-height:125%;font-family:'Fira Sans';-inkscape-font-specification:'Fira Sans Ultra-Light';letter-spacing:0px;word-spacing:0px;fill:#000000;fill-opacity:1;stroke:none;stroke-width:1px;stroke-linecap:butt;stroke-linejoin:miter;stroke-opacity:1"
         id="path4159-4"
         inkscape:connector-curvature="0"
         sodipodi:nodetypes="cccccccccccccccccc" />
    </g>
  </g>
</svg>
