<?xml version="1.0" encoding="UTF-8" standalone="no"?>
<!-- Created with Inkscape (http://www.inkscape.org/) -->

<svg
   xmlns:dc="http://purl.org/dc/elements/1.1/"
   xmlns:cc="http://creativecommons.org/ns#"
   xmlns:rdf="http://www.w3.org/1999/02/22-rdf-syntax-ns#"
   xmlns:svg="http://www.w3.org/2000/svg"
   xmlns="http://www.w3.org/2000/svg"
   xmlns:sodipodi="http://sodipodi.sourceforge.net/DTD/sodipodi-0.dtd"
   xmlns:inkscape="http://www.inkscape.org/namespaces/inkscape"
   width="140"
   height="46"
   viewBox="0 0 140 46.000001"
   id="svg4170"
   version="1.1"
   inkscape:version="0.91 r13725"
   sodipodi:docname="logo2.svg">
  <defs
     id="defs4172" />
  <sodipodi:namedview
     id="base"
     pagecolor="#ffffff"
     bordercolor="#666666"
     borderopacity="1.0"
     inkscape:pageopacity="0.0"
     inkscape:pageshadow="2"
     inkscape:zoom="5.6568543"
     inkscape:cx="63.834622"
     inkscape:cy="18.257409"
     inkscape:document-units="px"
     inkscape:current-layer="layer1"
     showgrid="false"
     units="px"
     inkscape:window-width="1366"
     inkscape:window-height="745"
     inkscape:window-x="1280"
     inkscape:window-y="23"
     inkscape:window-maximized="1" />
  <metadata
     id="metadata4175">
    <rdf:RDF>
      <cc:Work
         rdf:about="">
        <dc:format>image/svg+xml</dc:format>
        <dc:type
           rdf:resource="http://purl.org/dc/dcmitype/StillImage" />
        <dc:title></dc:title>
      </cc:Work>
    </rdf:RDF>
  </metadata>
  <g
     inkscape:label="Calque 1"
     inkscape:groupmode="layer"
     id="layer1"
     transform="translate(0,-1006.3622)">
    <path
       style="color:#000000;font-style:normal;font-variant:normal;font-weight:normal;font-stretch:normal;font-size:medium;line-height:normal;font-family:sans-serif;text-indent:0;text-align:start;text-decoration:none;text-decoration-line:none;text-decoration-style:solid;text-decoration-color:#000000;letter-spacing:normal;word-spacing:normal;text-transform:none;direction:ltr;block-progression:tb;writing-mode:lr-tb;baseline-shift:baseline;text-anchor:start;white-space:normal;clip-rule:nonzero;display:inline;overflow:visible;visibility:visible;opacity:1;isolation:auto;mix-blend-mode:normal;color-interpolation:sRGB;color-interpolation-filters:linearRGB;solid-color:#000000;solid-opacity:1;fill:#ffffff;fill-opacity:1;fill-rule:evenodd;stroke:none;stroke-width:2;stroke-linecap:butt;stroke-linejoin:miter;stroke-miterlimit:4;stroke-dasharray:none;stroke-dashoffset:0;stroke-opacity:1;color-rendering:auto;image-rendering:auto;shape-rendering:auto;text-rendering:auto;enable-background:accumulate"
       d="M 50.822266 17.761719 L 50.822266 21.716797 L 60.587891 38.392578 L 62.908203 38.392578 L 50.822266 17.761719 z "
       id="path4884"
       transform="translate(0,1006.3622)" />
    <path
       style="color:#000000;font-style:normal;font-variant:normal;font-weight:normal;font-stretch:normal;font-size:medium;line-height:normal;font-family:sans-serif;text-indent:0;text-align:start;text-decoration:none;text-decoration-line:none;text-decoration-style:solid;text-decoration-color:#000000;letter-spacing:normal;word-spacing:normal;text-transform:none;direction:ltr;block-progression:tb;writing-mode:lr-tb;baseline-shift:baseline;text-anchor:start;white-space:normal;clip-rule:nonzero;display:inline;overflow:visible;visibility:visible;opacity:1;isolation:auto;mix-blend-mode:normal;color-interpolation:sRGB;color-interpolation-filters:linearRGB;solid-color:#000000;solid-opacity:1;fill:#ffffff;fill-opacity:1;fill-rule:evenodd;stroke:none;stroke-width:2;stroke-linecap:butt;stroke-linejoin:miter;stroke-miterlimit:4;stroke-dasharray:none;stroke-dashoffset:0;stroke-opacity:1;color-rendering:auto;image-rendering:auto;shape-rendering:auto;text-rendering:auto;enable-background:accumulate"
       d="M 40.652344 0.3984375 L 24.644531 25.587891 L 27.476562 16.958984 L 22.203125 7.3457031 L 0 46 L 67.363281 46 L 62.908203 38.392578 L 60.587891 38.392578 L 63.873047 44 L 3.4570312 44 L 22.164062 11.431641 L 25.306641 17.160156 L 20.248047 32.5625 L 21.195312 32.875 L 22.041016 33.412109 L 40.583984 4.2363281 L 50.822266 21.716797 L 50.822266 17.761719 L 40.652344 0.3984375 z "
       id="path3349"
       transform="translate(0,1006.3622)" />
    <g
       style="font-style:normal;font-weight:normal;font-size:40px;line-height:125%;font-family:Sans;letter-spacing:0px;word-spacing:0px;fill:#000000;fill-opacity:1;stroke:none;stroke-width:1px;stroke-linecap:butt;stroke-linejoin:miter;stroke-opacity:1"
       id="text4151">
      <path
         d="m 58.309608,1022.4674 -2.375,0 0,17.225 2.375,0 0,-17.225 z m 9.375,0 -2.7,0 -6.55,8.025 6.8,9.2 2.925,0 -7,-9.35 6.525,-7.875 z"
         style="font-style:normal;font-variant:normal;font-weight:normal;font-stretch:normal;font-size:25px;font-family:'Fira Sans';-inkscape-font-specification:'Fira Sans';fill:#ffffff;fill-opacity:1"
         id="path4887" />
      <path
         d="m 79.284218,1036.6174 0,-6.025 c 0,-2.75 -1.45,-4.375 -4.625,-4.375 -1.475,0 -2.925,0.3 -4.55,0.9 l 0.575,1.675 c 1.35,-0.45 2.575,-0.7 3.55,-0.7 1.825,0 2.75,0.7 2.75,2.6 l 0,0.975 -2.025,0 c -3.675,0 -5.8,1.525 -5.8,4.35 0,2.35 1.575,3.975 4.2,3.975 1.6,0 3,-0.6 3.925,-1.975 0.4,1.3 1.25,1.825 2.575,1.975 l 0.525,-1.6 c -0.675,-0.25 -1.1,-0.625 -1.1,-1.775 z m -5.4,1.65 c -1.5,0 -2.275,-0.825 -2.275,-2.375 0,-1.8 1.225,-2.7 3.65,-2.7 l 1.725,0 0,3.025 c -0.75,1.375 -1.75,2.05 -3.1,2.05 z"
         style="font-style:normal;font-variant:normal;font-weight:normal;font-stretch:normal;font-size:25px;font-family:'Fira Sans';-inkscape-font-specification:'Fira Sans';fill:#ffffff;fill-opacity:1"
         id="path4889" />
      <path
         d="m 90.057265,1026.2174 c -1.6,0 -2.825,0.725 -3.725,1.95 l 0,-7.225 -2.3,0.275 0,18.475 2.025,0 0.225,-1.45 c 0.9,1.1 2.05,1.75 3.5,1.75 3.2,0 5.175,-2.775 5.175,-6.9 0,-4.4 -1.925,-6.875 -4.9,-6.875 z m -0.825,11.95 c -1.175,0 -2.225,-0.725 -2.9,-1.775 l 0,-6.3 c 0.675,-1.05 1.625,-2.05 3.075,-2.05 1.85,0 3.075,1.3 3.075,5.05 0,3.6 -1.325,5.075 -3.25,5.075 z"
         style="font-style:normal;font-variant:normal;font-weight:normal;font-stretch:normal;font-size:25px;font-family:'Fira Sans';-inkscape-font-specification:'Fira Sans';fill:#ffffff;fill-opacity:1"
         id="path4891" />
      <path
         d="m 107.75101,1036.6174 0,-6.025 c 0,-2.75 -1.45,-4.375 -4.625,-4.375 -1.475,0 -2.925,0.3 -4.549995,0.9 l 0.575,1.675 c 1.349995,-0.45 2.574995,-0.7 3.549995,-0.7 1.825,0 2.75,0.7 2.75,2.6 l 0,0.975 -2.025,0 c -3.674995,0 -5.799995,1.525 -5.799995,4.35 0,2.35 1.575,3.975 4.199995,3.975 1.6,0 3,-0.6 3.925,-1.975 0.4,1.3 1.25,1.825 2.575,1.975 l 0.525,-1.6 c -0.675,-0.25 -1.1,-0.625 -1.1,-1.775 z m -5.4,1.65 c -1.5,0 -2.275,-0.825 -2.275,-2.375 0,-1.8 1.225,-2.7 3.65,-2.7 l 1.725,0 0,3.025 c -0.75,1.375 -1.75,2.05 -3.1,2.05 z"
         style="font-style:normal;font-variant:normal;font-weight:normal;font-stretch:normal;font-size:25px;font-family:'Fira Sans';-inkscape-font-specification:'Fira Sans';fill:#ffffff;fill-opacity:1"
         id="path4893" />
      <path
         d="m 118.69906,1026.2174 c -1.725,0 -3.125,0.9 -4.025,2.25 l -0.2,-1.95 -1.975,0 0,13.175 2.3,0 0,-9.35 c 0.875,-1.4 1.875,-2.325 3.35,-2.325 1.275,0 2.075,0.575 2.075,2.55 l 0,9.125 2.3,0 0,-9.45 c 0,-2.5 -1.4,-4.025 -3.825,-4.025 z"
         style="font-style:normal;font-variant:normal;font-weight:normal;font-stretch:normal;font-size:25px;font-family:'Fira Sans';-inkscape-font-specification:'Fira Sans';fill:#ffffff;fill-opacity:1"
         id="path4895" />
      <path
         d="m 132.0975,1026.2174 c -3.75,0 -5.9,2.825 -5.9,6.9 0,4.175 2.125,6.875 5.875,6.875 3.725,0 5.875,-2.825 5.875,-6.9 0,-4.175 -2.1,-6.875 -5.85,-6.875 z m 0,1.85 c 2.175,0 3.375,1.6 3.375,5.025 0,3.45 -1.2,5.05 -3.4,5.05 -2.2,0 -3.4,-1.6 -3.4,-5.025 0,-3.45 1.225,-5.05 3.425,-5.05 z"
         style="font-style:normal;font-variant:normal;font-weight:normal;font-stretch:normal;font-size:25px;font-family:'Fira Sans';-inkscape-font-specification:'Fira Sans';fill:#ffffff;fill-opacity:1"
         id="path4897" />
    </g>
    <path
       style="fill:#ffffff;fill-opacity:1;fill-rule:evenodd;stroke:none;stroke-width:1px;stroke-linecap:butt;stroke-linejoin:miter;stroke-opacity:1"
       d="m 67.364,1052.3622 -2.344,-4 -62.72,0 -2.3,4 z"
       id="path4820"
       inkscape:connector-curvature="0"
       sodipodi:nodetypes="ccccc" />
  </g>
</svg>
