<svg xmlns="http://www.w3.org/2000/svg" width="140" height="46" viewBox="0 0 140 46">
  <path id="kabanologomount" d="M40.652.398l-16.007 25.19 2.832-8.63-5.274-9.612L0 46h67.363l-4.455-7.607h-2.32L63.873 44H3.457l18.707-32.568 3.143 5.728-5.06 15.402.948.313.846.537L40.585 4.236l10.238 17.48v-3.954L40.652.398z" fill="#fff"/>
  <path id="kabanologomountbgtext" d="M50.822 17.762v3.955l9.766 16.676h2.32l-12.086-20.63z" fill="#fff"/>
  <path id="kabanologotext" d="M58.31 16.105h-2.375V33.33h2.375V16.105zm9.375 0h-2.7l-6.55 8.025 6.8 9.2h2.925l-7-9.35 6.525-7.875zM79.284 30.255V24.23c0-2.75-1.45-4.375-4.625-4.375-1.476 0-2.926.3-4.55.9l.574 1.675c1.35-.45 2.575-.7 3.55-.7 1.825 0 2.75.7 2.75 2.6v.975H74.96c-3.676 0-5.8 1.525-5.8 4.35 0 2.35 1.574 3.975 4.2 3.975 1.6 0 3-.6 3.924-1.975.4 1.3 1.25 1.825 2.575 1.975l.524-1.6c-.675-.25-1.1-.625-1.1-1.775zm-5.4 1.65c-1.5 0-2.275-.825-2.275-2.375 0-1.8 1.224-2.7 3.65-2.7h1.724v3.025c-.75 1.375-1.75 2.05-3.1 2.05zM90.057 19.855c-1.6 0-2.825.725-3.725 1.95V14.58l-2.3.275V33.33h2.025l.225-1.45c.9 1.1 2.05 1.75 3.5 1.75 3.2 0 5.175-2.775 5.175-6.9 0-4.4-1.925-6.875-4.9-6.875zm-.825 11.95c-1.175 0-2.225-.725-2.9-1.775v-6.3c.675-1.05 1.625-2.05 3.075-2.05 1.85 0 3.075 1.3 3.075 5.05 0 3.6-1.325 5.075-3.25 5.075zM107.75 30.255V24.23c0-2.75-1.45-4.375-4.624-4.375-1.475 0-2.925.3-4.55.9l.575 1.675c1.35-.45 2.576-.7 3.55-.7 1.826 0 2.75.7 2.75 2.6v.975h-2.024c-3.675 0-5.8 1.525-5.8 4.35 0 2.35 1.575 3.975 4.2 3.975 1.6 0 3-.6 3.925-1.975.4 1.3 1.25 1.825 2.576 1.975l.525-1.6c-.674-.25-1.1-.625-1.1-1.775zm-5.4 1.65c-1.5 0-2.274-.825-2.274-2.375 0-1.8 1.225-2.7 3.65-2.7h1.725v3.025c-.75 1.375-1.75 2.05-3.1 2.05zM118.7 19.855c-1.726 0-3.126.9-4.026 2.25l-.2-1.95H112.5V33.33h2.3v-9.35c.874-1.4 1.874-2.325 3.35-2.325 1.274 0 2.074.575 2.074 2.55v9.125h2.3v-9.45c0-2.5-1.4-4.025-3.825-4.025zM132.097 19.855c-3.75 0-5.9 2.825-5.9 6.9 0 4.175 2.125 6.875 5.875 6.875 3.725 0 5.875-2.825 5.875-6.9 0-4.175-2.1-6.875-5.85-6.875zm0 1.85c2.175 0 3.375 1.6 3.375 5.025 0 3.45-1.2 5.05-3.4 5.05s-3.4-1.6-3.4-5.025c0-3.45 1.225-5.05 3.425-5.05z" fill="#fff"/>
  <path id="kabanologobase" d="M67.364 46l-2.344-4H2.3L0 46z" fill="#fff"/>
</svg>